<svg xmlns="http://www.w3.org/2000/svg" style="display: none;"><symbol id="facebook" viewBox="0 0 24 24"><title>facebook</title><path d="m15.997 3.985h2.191v-3.816c-.378-.052-1.678-.169-3.192-.169-3.159 0-5.323 1.987-5.323 5.639v3.361h-3.486v4.266h3.486v10.734h4.274v-10.733h3.345l.531-4.266h-3.877v-2.939c.001-1.233.333-2.077 2.051-2.077z"/></symbol><symbol id="twitter" viewBox="0 -47 512.00203 512"><title>twitter</title><path d="m191.011719 419.042969c-22.140625 0-44.929688-1.792969-67.855469-5.386719-40.378906-6.335938-81.253906-27.457031-92.820312-33.78125l-30.335938-16.585938 32.84375-10.800781c35.902344-11.804687 57.742188-19.128906 84.777344-30.597656-27.070313-13.109375-47.933594-36.691406-57.976563-67.175781l-7.640625-23.195313 6.265625.957031c-5.941406-5.988281-10.632812-12.066406-14.269531-17.59375-12.933594-19.644531-19.78125-43.648437-18.324219-64.21875l1.4375-20.246093 12.121094 4.695312c-5.113281-9.65625-8.808594-19.96875-10.980469-30.777343-5.292968-26.359376-.863281-54.363282 12.476563-78.851563l10.558593-19.382813 14.121094 16.960938c44.660156 53.648438 101.226563 85.472656 168.363282 94.789062-2.742188-18.902343-.6875-37.144531 6.113281-53.496093 7.917969-19.039063 22.003906-35.183594 40.722656-46.691407 20.789063-12.777343 46-18.96875 70.988281-17.433593 26.511719 1.628906 50.582032 11.5625 69.699219 28.746093 9.335937-2.425781 16.214844-5.015624 25.511719-8.515624 5.59375-2.105469 11.9375-4.496094 19.875-7.230469l29.25-10.078125-19.074219 54.476562c1.257813-.105468 2.554687-.195312 3.910156-.253906l31.234375-1.414062-18.460937 25.230468c-1.058594 1.445313-1.328125 1.855469-1.703125 2.421875-1.488282 2.242188-3.339844 5.03125-28.679688 38.867188-6.34375 8.472656-9.511718 19.507812-8.921875 31.078125 2.246094 43.96875-3.148437 83.75-16.042969 118.234375-12.195312 32.625-31.09375 60.617187-56.164062 83.199219-31.023438 27.9375-70.582031 47.066406-117.582031 56.847656-23.054688 4.796875-47.8125 7.203125-73.4375 7.203125zm0 0"/></symbol><symbol id="instagram" viewBox="0 0 512 512"><title>instagram</title><path d="m437 0h-362c-41.351562 0-75 33.648438-75 75v362c0 41.351562 33.648438 75 75 75h362c41.351562 0 75-33.648438 75-75v-362c0-41.351562-33.648438-75-75-75zm-180 390c-74.441406 0-135-60.558594-135-135s60.558594-135 135-135 135 60.558594 135 135-60.558594 135-135 135zm150-240c-24.8125 0-45-20.1875-45-45s20.1875-45 45-45 45 20.1875 45 45-20.1875 45-45 45zm0 0"/><path d="m407 90c-8.277344 0-15 6.722656-15 15s6.722656 15 15 15 15-6.722656 15-15-6.722656-15-15-15zm0 0"/><path d="m257 150c-57.890625 0-105 47.109375-105 105s47.109375 105 105 105 105-47.109375 105-105-47.109375-105-105-105zm0 0"/></symbol><symbol id="youtube" viewBox="0 0 512 512"><title>youtube</title><path style="fill:#F44336;" d="M490.24,113.92c-13.888-24.704-28.96-29.248-59.648-30.976C399.936,80.864,322.848,80,256.064,80 c-66.912,0-144.032,0.864-174.656,2.912c-30.624,1.76-45.728,6.272-59.744,31.008C7.36,138.592,0,181.088,0,255.904 C0,255.968,0,256,0,256c0,0.064,0,0.096,0,0.096v0.064c0,74.496,7.36,117.312,21.664,141.728 c14.016,24.704,29.088,29.184,59.712,31.264C112.032,430.944,189.152,432,256.064,432c66.784,0,143.872-1.056,174.56-2.816 c30.688-2.08,45.76-6.56,59.648-31.264C504.704,373.504,512,330.688,512,256.192c0,0,0-0.096,0-0.16c0,0,0-0.064,0-0.096 C512,181.088,504.704,138.592,490.24,113.92z"/><polygon style="fill:#FAFAFA;" points="192,352 192,160 352,256 "/></symbol><symbol id="youtube-1" viewBox="0 0 512 512"><title>youtube-1</title><path d="M490.24,113.92c-13.888-24.704-28.96-29.248-59.648-30.976C399.936,80.864,322.848,80,256.064,80 c-66.912,0-144.032,0.864-174.656,2.912c-30.624,1.76-45.728,6.272-59.744,31.008C7.36,138.592,0,181.088,0,255.904 C0,255.968,0,256,0,256c0,0.064,0,0.096,0,0.096v0.064c0,74.496,7.36,117.312,21.664,141.728 c14.016,24.704,29.088,29.184,59.712,31.264C112.032,430.944,189.152,432,256.064,432c66.784,0,143.872-1.056,174.56-2.816 c30.688-2.08,45.76-6.56,59.648-31.264C504.704,373.504,512,330.688,512,256.192c0,0,0-0.096,0-0.16c0,0,0-0.064,0-0.096 C512,181.088,504.704,138.592,490.24,113.92z M192,352V160l160,96L192,352z"/></symbol></svg>